<svg width="17" height="17" viewBox="0 0 17 17" fill="none" xmlns="http://www.w3.org/2000/svg">
<path d="M12.5657 9.24568C12.488 9.16791 12.3958 9.10621 12.2943 9.06412C12.1928 9.02202 12.084 9.00036 11.9741 9.00036C11.8642 9.00036 11.7554 9.02202 11.6539 9.06412C11.5524 9.10621 11.4602 9.16791 11.3825 9.24568L10.0488 10.5794C9.43052 10.3953 8.2767 9.97696 7.54542 9.24568C6.81414 8.5144 6.39579 7.36058 6.21171 6.74226L7.54542 5.40855C7.62319 5.33091 7.68488 5.2387 7.72698 5.1372C7.76907 5.03569 7.79074 4.92688 7.79074 4.817C7.79074 4.70711 7.76907 4.5983 7.72698 4.49679C7.68488 4.39529 7.62319 4.30308 7.54542 4.22545L4.1986 0.878624C4.12096 0.800856 4.02875 0.739159 3.92725 0.697063C3.82574 0.654968 3.71693 0.633301 3.60705 0.633301C3.49716 0.633301 3.38835 0.654968 3.28684 0.697063C3.18534 0.739159 3.09313 0.800856 3.0155 0.878624L0.74635 3.14777C0.428402 3.46572 0.249347 3.90248 0.256041 4.34844C0.275285 5.53991 0.590723 9.67826 3.8522 12.9397C7.11368 16.2012 11.252 16.5158 12.4443 16.5359H12.4678C12.9095 16.5359 13.3271 16.3619 13.6433 16.0456L15.9125 13.7764C15.9902 13.6988 16.0519 13.6066 16.094 13.5051C16.1361 13.4036 16.1578 13.2948 16.1578 13.1849C16.1578 13.075 16.1361 12.9662 16.094 12.8647C16.0519 12.7632 15.9902 12.671 15.9125 12.5933L12.5657 9.24568ZM12.4594 14.8616C11.4152 14.8441 7.84245 14.5638 5.0353 11.7558C2.21895 8.93944 1.94619 5.35416 1.92945 4.33087L3.60705 2.65328L5.77077 4.817L4.68891 5.89886C4.59056 5.99713 4.51825 6.11836 4.47852 6.25158C4.43878 6.38481 4.43287 6.52585 4.46132 6.66193C4.4814 6.75815 4.97255 9.03985 6.36148 10.4288C7.75041 11.8177 10.0321 12.3089 10.1283 12.3289C10.2643 12.3582 10.4055 12.3528 10.5389 12.3131C10.6722 12.2735 10.7934 12.201 10.8914 12.1022L11.9741 11.0203L14.1378 13.1841L12.4594 14.8616Z" fill="white"/>
</svg>
